<svg xmlns="http://www.w3.org/2000/svg" width="33.935" height="33.23" viewBox="0 0 33.935 33.23">
  <g id="グループ_502" data-name="グループ 502" transform="translate(0.291 0.501)">
    <g id="楕円形_319" data-name="楕円形 319" transform="translate(0.485 -0.271)" fill="none" stroke="#183153" stroke-width="9">
      <ellipse cx="16.362" cy="16.5" rx="16.362" ry="16.5" stroke="none"/>
      <ellipse cx="16.362" cy="16.5" rx="11.862" ry="12" fill="none"/>
    </g>
    <path id="pause" d="M16.468,0A16.29,16.29,0,0,0,0,16.106a16.29,16.29,0,0,0,16.468,16.1,16.29,16.29,0,0,0,16.467-16.1A16.29,16.29,0,0,0,16.468,0ZM14.409,20.132a1.018,1.018,0,0,1-1.029,1.007H11.321a1.018,1.018,0,0,1-1.029-1.007V12.079a1.018,1.018,0,0,1,1.029-1.007H13.38a1.018,1.018,0,0,1,1.029,1.007Zm8.234,0a1.018,1.018,0,0,1-1.029,1.007H19.555a1.018,1.018,0,0,1-1.029-1.007V12.079a1.018,1.018,0,0,1,1.029-1.007h2.058a1.018,1.018,0,0,1,1.029,1.007Z" transform="translate(0.209)" fill="#fff" stroke="#183153" stroke-width="1"/>
  </g>
</svg>
