<svg xmlns="http://www.w3.org/2000/svg" width="33.935" height="33.23" viewBox="0 0 33.935 33.23">
  <g id="Group_504" data-name="Group 504" transform="translate(790.5 4105.23)">
    <g id="楕円形_319" data-name="楕円形 319" transform="translate(-789.724 -4105)" fill="none" stroke="#183153" stroke-width="9">
      <ellipse cx="16.362" cy="16.5" rx="16.362" ry="16.5" stroke="none"/>
      <ellipse cx="16.362" cy="16.5" rx="11.862" ry="12" fill="none"/>
    </g>
    <path id="pause" d="M16.468,0A16.29,16.29,0,0,0,0,16.106a16.29,16.29,0,0,0,16.468,16.1,16.29,16.29,0,0,0,16.467-16.1A16.29,16.29,0,0,0,16.468,0ZM14.409,20.132a1.018,1.018,0,0,1-1.029,1.007H11.321a1.018,1.018,0,0,1-1.029-1.007V12.079a1.018,1.018,0,0,1,1.029-1.007H13.38a1.018,1.018,0,0,1,1.029,1.007Zm8.234,0a1.018,1.018,0,0,1-1.029,1.007H19.555a1.018,1.018,0,0,1-1.029-1.007V12.079a1.018,1.018,0,0,1,1.029-1.007h2.058a1.018,1.018,0,0,1,1.029,1.007Z" transform="translate(-790 -4104.729)" fill="#fff" stroke="#183153" stroke-width="1"/>
    <g id="楕円形_320" data-name="楕円形 320" transform="translate(-785 -4103)" fill="#fff">
      <path d="M 12.76425170898438 21.02850151062012 C 8.207331657409668 21.02850151062012 4.500001907348633 17.32117080688477 4.500001907348633 12.76425170898438 C 4.500001907348633 8.207331657409668 8.207331657409668 4.500001907348633 12.76425170898438 4.500001907348633 C 17.32117080688477 4.500001907348633 21.02850151062012 8.207331657409668 21.02850151062012 12.76425170898438 C 21.02850151062012 17.32117080688477 17.32117080688477 21.02850151062012 12.76425170898438 21.02850151062012 Z" stroke="none"/>
      <path d="M 12.76425170898438 9.000001907348633 C 10.68863964080811 9.000001907348633 9.000001907348633 10.68863964080811 9.000001907348633 12.76425170898438 C 9.000001907348633 14.83986377716064 10.68863964080811 16.52850151062012 12.76425170898438 16.52850151062012 C 14.83986377716064 16.52850151062012 16.52850151062012 14.83986377716064 16.52850151062012 12.76425170898438 C 16.52850151062012 10.68863964080811 14.83986377716064 9.000001907348633 12.76425170898438 9.000001907348633 M 12.76425170898438 1.9073486328125e-06 C 19.81375122070312 1.9073486328125e-06 25.52850151062012 5.714752197265625 25.52850151062012 12.76425170898438 C 25.52850151062012 19.81375122070312 19.81375122070312 25.52850151062012 12.76425170898438 25.52850151062012 C 5.714752197265625 25.52850151062012 1.9073486328125e-06 19.81375122070312 1.9073486328125e-06 12.76425170898438 C 1.9073486328125e-06 5.714752197265625 5.714752197265625 1.9073486328125e-06 12.76425170898438 1.9073486328125e-06 Z" stroke="none" fill="#fff"/>
    </g>
    <path id="play2" d="M25.99,68.2l16.226-9.372Zm1.453-16.227,11.868,6.855L27.443,65.681Z" transform="translate(-804.673 -4147.586)" fill="#1e3050"/>
  </g>
</svg>
